<svg width="30" height="26" viewBox="0 0 30 26" fill="none" xmlns="http://www.w3.org/2000/svg">
<path d="M29 21V15C29 7.26801 22.732 1 15 1V1C7.26801 1 1 7.26801 1 15V21" stroke="#181818" stroke-width="1.6"/>
<path d="M19 21V16C19 13.7909 17.2091 12 15 12V12C12.7909 12 11 13.7909 11 16V21" stroke="#181818" stroke-width="1.6"/>
<path d="M3 9L27 9" stroke="#181818" stroke-width="1.6"/>
<path d="M1 15H11.5" stroke="#181818" stroke-width="1.6"/>
<path d="M18.5 15L29 15" stroke="#181818" stroke-width="1.6"/>
<path d="M15 12L15 2" stroke="#181818" stroke-width="1.55524"/>
<path d="M6 20V15.6216L7.05882 8.81081L15 1" stroke="#181818" stroke-width="1.55524"/>
<path d="M24 21V15.8649L22.8889 9L15 1" stroke="#181818" stroke-width="1.55524"/>
<mask id="path-9-inside-1_0_1" fill="white">
<rect y="20" width="30" height="6" rx="1.43"/>
</mask>
<rect y="20" width="30" height="6" rx="1.43" stroke="#181818" stroke-width="3.2" mask="url(#path-9-inside-1_0_1)"/>
</svg>
