<svg width="30" height="27" viewBox="0 0 30 27" fill="none" xmlns="http://www.w3.org/2000/svg">
<path d="M28.9272 9.64521V25.5714C28.9272 25.9186 28.6458 26.2 28.2987 26.2H1.70128C1.35413 26.2 1.07271 25.9186 1.07271 25.5714V9.64521C1.07271 9.42441 1.18855 9.21981 1.37788 9.10621L14.6766 1.12699C14.8756 1.00756 15.1243 1.00756 15.3234 1.12699L15.735 0.440996L15.3234 1.12699L28.6221 9.10621C28.8114 9.21981 28.9272 9.42441 28.9272 9.64521Z" stroke="#181818" stroke-width="1.6"/>
<path d="M8 5L8 26" stroke="#181818" stroke-width="1.6"/>
<path d="M15 1L15 26" stroke="#181818" stroke-width="1.6"/>
<path d="M22 5L22 26" stroke="#181818" stroke-width="1.6"/>
<path d="M1 17H29" stroke="#181818" stroke-width="1.6"/>
</svg>
