<svg width="29" height="20" viewBox="0 0 29 20" fill="none" xmlns="http://www.w3.org/2000/svg">
<path d="M25.6285 1.42857V9.28572C25.6285 9.63286 25.3471 9.91428 25 9.91428H3.5714C3.22424 9.91428 2.94282 9.63286 2.94282 9.28571V1.42857C2.94282 1.08142 3.22424 0.8 3.57139 0.8H25C25.3471 0.8 25.6285 1.08142 25.6285 1.42857Z" fill="white" stroke="#181818" stroke-width="1.6"/>
<path d="M12.7714 5.71428V8.57142C12.7714 8.91857 12.49 9.19999 12.1429 9.19999H6.42857C6.08142 9.19999 5.8 8.91857 5.8 8.57142V5.71428C5.8 5.36713 6.08142 5.08571 6.42857 5.08571H12.1429C12.49 5.08571 12.7714 5.36713 12.7714 5.71428Z" fill="white" stroke="#181818" stroke-width="1.6"/>
<path d="M22.7714 5.71428V8.57142C22.7714 8.91857 22.49 9.19999 22.1429 9.19999H16.4286C16.0814 9.19999 15.8 8.91857 15.8 8.57142V5.71428C15.8 5.36713 16.0814 5.08571 16.4286 5.08571H22.1429C22.49 5.08571 22.7714 5.36713 22.7714 5.71428Z" fill="white" stroke="#181818" stroke-width="1.6"/>
<path d="M27.7714 10V15.7143C27.7714 16.0614 27.49 16.3429 27.1429 16.3429H1.42857C1.08142 16.3429 0.8 16.0614 0.8 15.7143V10C0.8 9.65286 1.08142 9.37144 1.42857 9.37144H27.1429C27.49 9.37144 27.7714 9.65286 27.7714 10Z" fill="white" stroke="#181818" stroke-width="1.6"/>
<path d="M3.57141 17.1428V19.9999M25 18.3673V17.1428V19.9999" stroke="#181818" stroke-width="1.6"/>
</svg>
