<svg width="29" height="20" viewBox="0 0 29 20" fill="none" xmlns="http://www.w3.org/2000/svg">
<path d="M25.6287 1.42857V9.28572C25.6287 9.63287 25.3472 9.91429 25.0001 9.91429H3.57152C3.22437 9.91429 2.94294 9.63286 2.94294 9.28572V1.42857C2.94294 1.08142 3.22436 0.8 3.57152 0.8H25.0001C25.3472 0.8 25.6287 1.08142 25.6287 1.42857Z" fill="white" stroke="#181818" stroke-width="1.6"/>
<path d="M27.7714 9.99992V15.7142C27.7714 16.0614 27.49 16.3428 27.1429 16.3428H1.42857C1.08142 16.3428 0.8 16.0614 0.8 15.7142V9.99992C0.8 9.65277 1.08142 9.37135 1.42857 9.37135H27.1429C27.49 9.37135 27.7714 9.65277 27.7714 9.99992Z" fill="white" stroke="#181818" stroke-width="1.6"/>
<path d="M3.57153 17.1429V20.0001M25.0001 18.3674V17.1429V20.0001" stroke="#181818" stroke-width="1.6"/>
<path d="M5.00002 16.3429L1.42859 16.3429C1.08144 16.3429 0.800018 16.0615 0.800018 15.7144L0.800018 7.85722C0.800018 7.51007 1.08144 7.22865 1.42859 7.22865L5.00002 7.22865C5.34717 7.22865 5.62859 7.51007 5.62859 7.85722L5.62859 15.7144C5.62859 16.0615 5.34717 16.3429 5.00002 16.3429Z" fill="white" stroke="#181818" stroke-width="1.6"/>
<path d="M27.143 16.3429L23.5715 16.3429C23.2244 16.3429 22.943 16.0615 22.943 15.7144L22.943 7.85722C22.943 7.51007 23.2244 7.22865 23.5715 7.22865L27.143 7.22865C27.4901 7.22865 27.7715 7.51007 27.7715 7.85722L27.7715 15.7144C27.7715 16.0615 27.4901 16.3429 27.143 16.3429Z" fill="white" stroke="#181818" stroke-width="1.6"/>
</svg>
