<svg width="29" height="29" viewBox="0 0 29 29" fill="none" xmlns="http://www.w3.org/2000/svg">
<path d="M27.7714 12.4286V23.1429C27.7714 23.49 27.49 23.7714 27.1429 23.7714H1.42857C1.08142 23.7714 0.8 23.49 0.8 23.1429V12.4286C0.8 12.0814 1.08142 11.8 1.42857 11.8H27.1429C27.49 11.8 27.7714 12.0814 27.7714 12.4286Z" stroke="#181818" stroke-width="1.6"/>
<path d="M8.2145 7.42857L7.75207 6.50372C7.3774 5.75438 7.44763 4.85933 7.93458 4.1776V4.1776C8.52275 3.35416 8.49239 2.24023 7.86025 1.45005L7.50021 1" stroke="#181818" stroke-width="1.6"/>
<path d="M14.2858 7.42857L13.8234 6.50372C13.4487 5.75438 13.5189 4.85933 14.0059 4.1776V4.1776C14.594 3.35416 14.5637 2.24023 13.9315 1.45005L13.5715 1" stroke="#181818" stroke-width="1.6"/>
<path d="M20.3571 7.42857L19.8946 6.50372C19.52 5.75438 19.5902 4.85933 20.0772 4.1776V4.1776C20.6653 3.35416 20.635 2.24023 20.0028 1.45005L19.6428 1" stroke="#181818" stroke-width="1.6"/>
<path d="M3.57129 23.1428V28.1428M24.9999 25.2857V23.1428V28.1428" stroke="#181818" stroke-width="1.6"/>
<circle cx="5.71415" cy="16" r="1.34286" stroke="#181818" stroke-width="1.6"/>
<circle cx="11.4285" cy="16" r="1.34286" stroke="#181818" stroke-width="1.6"/>
<circle cx="17.1429" cy="16" r="1.34286" stroke="#181818" stroke-width="1.6"/>
<circle cx="22.8572" cy="16" r="1.34286" stroke="#181818" stroke-width="1.6"/>
</svg>
